<?xml version="1.0" encoding="UTF-8" standalone="no"?>
<svg
   xmlns:dc="http://purl.org/dc/elements/1.1/"
   xmlns:cc="http://creativecommons.org/ns#"
   xmlns:rdf="http://www.w3.org/1999/02/22-rdf-syntax-ns#"
   xmlns:svg="http://www.w3.org/2000/svg"
   xmlns="http://www.w3.org/2000/svg"
   id="svg8"
   version="1.1"
   viewBox="0 0 100 100"
   height="100mm"
   width="100mm">
  <defs
     id="defs2">
    <clipPath
       id="clipPath890"
       clipPathUnits="userSpaceOnUse">
      <rect
         rx="20"
         y="196.20625"
         x="-6.6145835"
         height="100"
         width="100"
         id="rect892"
         style="opacity:1;fill:#808080;fill-opacity:0.50232562;stroke:none;stroke-width:1.99999988;stroke-linecap:round;stroke-linejoin:round;stroke-miterlimit:4;stroke-dasharray:none;stroke-dashoffset:0;stroke-opacity:1;paint-order:markers fill stroke" />
    </clipPath>
  </defs>
  <metadata
     id="metadata5">
    <rdf:RDF>
      <cc:Work
         rdf:about="">
        <dc:format>image/svg+xml</dc:format>
        <dc:type
           rdf:resource="http://purl.org/dc/dcmitype/StillImage" />
        <dc:title></dc:title>
      </cc:Work>
    </rdf:RDF>
  </metadata>
  <g
     transform="translate(0,-197)"
     id="layer1">
    <rect
       rx="20"
       y="197"
       x="2.8421709e-14"
       height="100"
       width="100"
       id="rect873"
       style="opacity:1;fill:#808080;fill-opacity:0.50232562;stroke:none;stroke-width:2;stroke-linecap:round;stroke-linejoin:round;stroke-miterlimit:4;stroke-dasharray:none;stroke-dashoffset:0;stroke-opacity:1;paint-order:markers fill stroke" />
    <g
       clip-path="url(#clipPath890)"
       transform="translate(6.6145833,0.79375)"
       id="g4696">
      <path
         style="fill:none;fill-opacity:1;stroke:#ff0000;stroke-width:6;stroke-linecap:round;stroke-linejoin:miter;stroke-miterlimit:4;stroke-dasharray:none;stroke-opacity:1"
         d="m -8.7312499,288.79792 c 6.5266534,0 13.0530421,0 18.8297039,-1.14655 5.776662,-1.14656 10.80395,-3.43971 14.816713,-7.71723 4.012764,-4.27751 7.011378,-10.53932 10.009833,-16.8008"
         id="path4568"
         transform="translate(-13.229167,5.55625)" />
      <path
         style="fill:none;stroke:#ff0000;stroke-width:4;stroke-linecap:round;stroke-linejoin:miter;stroke-miterlimit:4;stroke-dasharray:none;stroke-opacity:1"
         d="m 52.387499,293.29583 c 2.081981,-4.25071 4.23349,-8.64337 7.981562,-9.96617 3.748072,-1.32279 9.12833,0.35303 13.670338,-0.52902 4.542009,-0.88204 8.24629,-4.32173 11.950183,-7.76106"
         id="path4576"
         transform="translate(-30.691666,-24.60624)" />
      <path
         style="fill:none;stroke:#ff0000;stroke-width:2;stroke-linecap:round;stroke-linejoin:miter;stroke-miterlimit:4;stroke-dasharray:none;stroke-opacity:1"
         d="m 36.777083,216.0375 c 0.453031,-3.26182 0.881985,-6.35029 -0.58946,-9.23912 -1.471444,-2.88882 -4.966751,-5.57752 -5.868448,-9.09644 -0.901697,-3.51892 0.813583,-8.12309 2.489158,-12.62069"
         id="path4580"
         transform="translate(-18.520833,4.49792)" />
      <path
         style="fill:none;stroke:#ff0000;stroke-width:2;stroke-linecap:round;stroke-linejoin:miter;stroke-miterlimit:4;stroke-dasharray:none;stroke-opacity:1"
         d="m 72.760416,251.22708 c 2.469735,-1.94051 4.939182,-3.88078 6.217854,-6.2178 1.278672,-2.33701 1.366877,-5.07136 1.234564,-7.54078 -0.132313,-2.46941 -0.485092,-4.67427 -0.837835,-6.87891"
         id="path4588"
         transform="translate(-17.4625,-0.79374)" />
      <path
         style="fill:none;stroke:#ff0000;stroke-width:2;stroke-linecap:round;stroke-linejoin:miter;stroke-miterlimit:4;stroke-dasharray:none;stroke-opacity:1"
         d="m 69.056249,264.98542 c 2.293354,-1.67591 4.58641,-3.35161 7.452705,-4.10115 2.866295,-0.74954 6.305629,-0.57316 9.745212,-0.39677"
         id="path4592"
         transform="translate(-13.758333,-14.55208)" />
      <path
         style="fill:none;stroke:#ff0000;stroke-width:1;stroke-linecap:round;stroke-linejoin:miter;stroke-miterlimit:4;stroke-dasharray:none;stroke-opacity:1"
         d="m 82.285416,224.76875 c -0.881997,-2.73419 -1.763942,-5.46822 -3.748079,-6.96742 -1.984136,-1.49921 -5.071124,-1.76381 -8.158171,-2.02841"
         id="path4596"
         transform="translate(-20.372917,5.0271)" />
      <path
         style="fill:none;stroke:#ff0000;stroke-width:1;stroke-linecap:round;stroke-linejoin:miter;stroke-miterlimit:4;stroke-dasharray:none;stroke-opacity:1"
         d="m 88.635416,222.91667 c -1.269862,-3.21698 -2.907087,-7.36462 -3.680852,-9.64828 -0.773766,-2.28366 -1.47119,-4.97905 -0.503002,-6.63845 0.968188,-1.6594 3.313932,-2.45694 5.771354,-3.29244"
         id="path4600"
         transform="translate(-26.722917,6.87918)" />
      <path
         style="fill:none;stroke:#0000ff;stroke-width:3;stroke-linecap:round;stroke-linejoin:miter;stroke-miterlimit:4;stroke-dasharray:none;stroke-opacity:1"
         d="m 63.764583,272.12917 c 4.233573,0.3528 8.466907,0.70557 12.656061,-0.3087 4.189154,-1.01426 8.334527,-3.39565 9.216382,-9.30432 0.881856,-5.90868 -1.499572,-15.34619 -3.880777,-24.78282"
         id="path4644"
         transform="translate(-6.614583,-3.70417)" />
      <path
         style="fill:none;stroke:#ff0000;stroke-width:1;stroke-linecap:round;stroke-linejoin:miter;stroke-miterlimit:4;stroke-dasharray:none;stroke-opacity:1"
         d="m 76.464582,259.69375 c 3.614183,0.0861 7.409828,0.17642 10.245104,-0.57955 2.835277,-0.75597 4.803554,-2.35639 5.50917,-4.38549 0.705615,-2.0291 0.148698,-4.48467 -0.40844,-6.94121"
         id="path4604"
         transform="translate(-3.9687487,-13.75833)" />
      <path
         style="fill:none;stroke:#ff0000;stroke-width:1;stroke-linecap:round;stroke-linejoin:miter;stroke-miterlimit:4;stroke-dasharray:none;stroke-opacity:1"
         d="m 74.347916,266.04375 c 3.704357,0.88199 7.408526,1.76393 9.611061,3.73853 2.202534,1.97459 2.912506,5.08072 3.265305,7.89006 0.3528,2.80934 0.352801,5.56906 0.352801,8.21516"
         id="path4608"
         transform="translate(-1.8520827,-20.10833)" />
      <path
         style="fill:none;stroke:#0000ff;stroke-width:6;stroke-linecap:round;stroke-linejoin:miter;stroke-miterlimit:4;stroke-dasharray:none;stroke-opacity:1"
         d="m 34.13125,318.96042 c -1.058381,-4.32172 -2.116712,-8.64324 -1.014276,-15.61046 1.102436,-6.96722 4.365772,-16.58083 7.628859,-26.19371"
         id="path4612" />
      <path
         style="fill:none;stroke:#0000ff;stroke-width:4;stroke-linecap:round;stroke-linejoin:miter;stroke-miterlimit:4;stroke-dasharray:none;stroke-opacity:1"
         d="m 53.181249,286.68125 c 0.951006,-4.14985 1.940349,-8.46697 0.837971,-14.19926 -1.102377,-5.73228 -4.277608,-12.96475 -7.452554,-20.19657"
         id="path4616"
         transform="translate(-12.435416,-9.525)" />
      <path
         style="fill:none;stroke:#0000ff;stroke-width:4;stroke-linecap:round;stroke-linejoin:miter;stroke-miterlimit:4;stroke-dasharray:none;stroke-opacity:1"
         d="m 66.674999,294.35417 c 1.146645,-3.17532 2.293277,-6.35061 3.957529,-8.26403 1.664253,-1.91342 3.846377,-2.56585 6.007084,-2.43353 2.160706,0.13232 4.300179,1.04934 6.439554,1.96631"
         id="path4620"
         transform="translate(-25.929166,-17.19792)" />
      <path
         style="fill:none;stroke:#0000ff;stroke-width:2;stroke-linecap:round;stroke-linejoin:miter;stroke-miterlimit:4;stroke-dasharray:none;stroke-opacity:1"
         d="m 40.481249,240.64375 c -1.922691,-3.84538 -3.880605,-7.76121 -6.967241,-10.31876 -3.086636,-2.55755 -7.320085,-3.7923 -11.906238,-4.14511 -4.586154,-0.3528 -9.524842,0.17634 -13.3174466,-1.58768 -3.7926045,-1.76403 -6.4382832,-5.82074 -9.08407339,-9.87762"
         id="path4624"
         transform="translate(-6.349999,2.11667)" />
      <path
         style="fill:none;stroke:#ff0000;stroke-width:4;stroke-linecap:round;stroke-linejoin:miter;stroke-miterlimit:4;stroke-dasharray:none;stroke-opacity:1"
         d="m 48.154166,284.3 c 2.293207,-4.85101 4.586261,-9.7017 3.748449,-15.16943 -0.837813,-5.46773 -4.806825,-11.55355 -6.526583,-17.15398 -1.719758,-5.60043 -1.190586,-10.71576 -0.661449,-15.83076"
         id="path4572"
         transform="translate(-26.458333,-15.61041)" />
      <path
         style="fill:none;stroke:#0000ff;stroke-width:2;stroke-linecap:round;stroke-linejoin:miter;stroke-miterlimit:4;stroke-dasharray:none;stroke-opacity:1"
         d="m 37.570833,237.20417 c -2.910467,-5.20356 -5.820883,-10.40704 -8.510813,-15.30183 -2.68993,-4.89479 -5.159375,-9.4809 -4.982825,-13.14106 0.176551,-3.66015 2.99877,-6.39418 5.820722,-9.12794"
         id="path4628"
         transform="translate(-3.439583,5.55625)" />
      <path
         style="fill:none;stroke:#ff0000;stroke-width:2;stroke-linecap:round;stroke-linejoin:miter;stroke-miterlimit:4;stroke-dasharray:none;stroke-opacity:1"
         d="m 44.185416,227.41458 c 0.529226,-2.64613 1.058394,-5.29197 3.52771,-7.23207 2.469316,-1.9401 6.879549,-3.17496 10.627641,-6.30579 3.748092,-3.13084 6.835116,-8.15828 9.921732,-13.18505"
         id="path4584"
         transform="translate(-25.929166,-6.87916)" />
      <path
         style="fill:none;stroke:#0000ff;stroke-width:1;stroke-linecap:round;stroke-linejoin:miter;stroke-miterlimit:4;stroke-dasharray:none;stroke-opacity:1"
         d="m 37.835416,212.06875 c 2.822506,-2.38149 5.644727,-4.76274 8.02575,-5.15956 2.381024,-0.39683 4.321499,1.19083 5.203442,3.04276 0.881943,1.85193 0.705579,3.96829 -0.352792,6.08527 -1.058372,2.11698 -2.976516,4.2095 -2.263075,5.99342 0.713441,1.78392 4.027081,3.17914 7.37834,4.5902"
         id="path4636"
         transform="translate(-11.377082,-6.87916)" />
      <path
         style="fill:none;stroke:#0000ff;stroke-width:1;stroke-linecap:round;stroke-linejoin:miter;stroke-miterlimit:4;stroke-dasharray:none;stroke-opacity:1"
         d="m 74.347916,229.00208 c 2.646109,-2.3815 5.291942,-4.76275 6.438343,-8.86348 1.146401,-4.10073 0.793586,-9.92218 0.440823,-15.74277"
         id="path4640"
         transform="translate(-47.889582,-23.81249)" />
      <path
         style="fill:none;stroke:#0000ff;stroke-width:3;stroke-linecap:round;stroke-linejoin:miter;stroke-miterlimit:4;stroke-dasharray:none;stroke-opacity:1"
         d="m 54.504166,274.24583 c 3.26329,1.76394 6.526485,3.52783 9.789583,5.29167"
         id="path4648"
         transform="translate(2.645834,-5.82083)" />
      <path
         style="fill:none;stroke:#0000ff;stroke-width:1;stroke-linecap:round;stroke-linejoin:miter;stroke-miterlimit:4;stroke-dasharray:none;stroke-opacity:1"
         d="m 61.912499,277.95 c 2.910501,1.67574 5.820921,3.35144 8.510916,3.21904 2.689995,-0.13241 5.159516,-2.07274 7.628667,-4.01279"
         id="path4652"
         transform="translate(5.027084,-4.23333)" />
      <path
         style="fill:none;stroke:#0000ff;stroke-width:2;stroke-linecap:round;stroke-linejoin:miter;stroke-miterlimit:4;stroke-dasharray:none;stroke-opacity:1"
         d="m 66.674999,279.5375 c 1.675682,1.85207 3.350938,3.70367 4.98261,6.28491 1.631672,2.58123 3.218505,5.89036 4.012078,9.59349 0.793573,3.70313 0.79424,7.80366 0.794907,11.90285"
         id="path4656"
         transform="translate(0.264584,-5.82083)" />
      <path
         style="fill:none;stroke:#0000ff;stroke-width:1;stroke-linecap:round;stroke-linejoin:miter;stroke-miterlimit:4;stroke-dasharray:none;stroke-opacity:1"
         d="m 82.285416,228.7375 c -0.97019,-2.99877 -1.940332,-5.99739 -1.852092,-9.30465 0.08824,-3.30727 1.23483,-6.92344 0.869408,-9.32859 -0.365422,-2.40514 -2.368637,-3.67991 -4.308983,-4.91468"
         id="path4664"
         transform="translate(-7.14375,5.29166)" />
      <path
         style="fill:none;stroke:#0000ff;stroke-width:1;stroke-linecap:round;stroke-linejoin:miter;stroke-miterlimit:4;stroke-dasharray:none;stroke-opacity:1"
         d="m 85.195832,230.06042 c -0.515916,-3.18148 -1.058369,-6.52661 1.4e-4,-8.64323 1.058509,-2.11662 3.704344,-3.08676 5.864931,-2.38117 2.160587,0.70559 3.836281,3.08684 5.512012,5.46815"
         id="path4668"
         transform="translate(-10.054166,3.96874)" />
    </g>
  </g>
</svg>
